<svg xmlns="http://www.w3.org/2000/svg" viewBox="0 0 400 820" fill="none" stroke="currentColor" stroke-width="1.5">
  <path fill="currentColor" fill-opacity="0.08" stroke="currentColor" stroke-opacity="0.35" stroke-linejoin="round" d="M200 24 C268 24 324 48 356 88 C376 118 384 152 384 188 L384 212 C384 240 376 268 360 292 L344 312 L344 356 L352 396 L352 456 L348 516 L340 576 L332 636 L324 696 L320 756 L316 816 L84 816 L80 756 L76 696 L68 636 L60 576 L52 516 L48 456 L48 396 L56 356 L56 312 L40 292 C24 268 16 240 16 212 L16 188 C16 152 24 118 44 88 C76 48 132 24 200 24 Z"/>
</svg>
