<svg xmlns="http://www.w3.org/2000/svg" viewBox="0 0 400 820" fill="none" stroke="currentColor" stroke-width="1.5">
  <path fill="currentColor" fill-opacity="0.08" stroke="currentColor" stroke-opacity="0.35" stroke-linejoin="round" d="M200 28 C169 28 145 50 145 83 C145 109 159 131 175 143 C180 151 181 162 177 175 C172 189 160 201 144 214 C125 229 114 252 114 281 C114 311 123 339 132 367 C139 389 141 415 137 444 C132 474 128 504 126 536 C124 571 128 610 137 653 C143 711 146 763 146 812 L172 812 C171 774 169 724 167 682 C165 646 168 613 174 580 C180 551 185 523 189 492 C192 467 194 434 195 399 C196 355 196 318 195 286 C194 264 197 248 200 240 C203 248 206 264 205 286 C204 318 204 355 205 399 C206 434 208 467 211 492 C215 523 220 551 226 580 C232 613 235 646 233 682 C231 724 229 774 228 812 L254 812 C254 763 257 711 263 653 C272 610 276 571 274 536 C272 504 268 474 263 444 C259 415 261 389 268 367 C277 339 286 311 286 281 C286 252 275 229 256 214 C240 201 228 189 223 175 C219 162 220 151 225 143 C241 131 255 109 255 83 C255 50 231 28 200 28 Z"/>
</svg>
