<svg xmlns="http://www.w3.org/2000/svg" viewBox="0 0 400 820" fill="none" stroke="currentColor" stroke-width="1.5">
  <path fill="currentColor" fill-opacity="0.08" stroke="currentColor" stroke-opacity="0.35" stroke-linejoin="round" d="M200 28 C170 28 146 50 146 82 C146 108 160 130 176 142 C180 150 181 160 178 172 C172 186 160 198 144 210 C126 224 116 248 116 276 C116 306 124 334 132 362 C138 384 140 410 136 440 C132 470 128 500 126 532 C124 566 128 604 136 646 C142 706 144 758 144 812 L170 812 C170 772 168 720 166 676 C164 640 166 606 172 574 C178 544 184 516 188 486 C191 462 193 430 194 398 C195 356 195 320 194 290 C193 268 196 252 200 244 C204 252 207 268 206 290 C205 320 205 356 206 398 C207 430 209 462 212 486 C216 516 222 544 228 574 C234 606 236 640 234 676 C232 720 230 772 230 812 L256 812 C256 758 258 706 264 646 C272 604 276 566 274 532 C272 500 268 470 264 440 C260 410 262 384 268 362 C276 334 284 306 284 276 C284 248 274 224 256 210 C240 198 228 186 222 172 C219 160 220 150 224 142 C240 130 254 108 254 82 C254 50 230 28 200 28 Z"/>
</svg>
